<?xml version="1.0" encoding="utf-8"?>
<!-- Generator: Adobe Illustrator 19.0.0, SVG Export Plug-In . SVG Version: 6.00 Build 0)  -->
<svg version="1.1" id="Layer_1" xmlns:sketch="http://www.bohemiancoding.com/sketch/ns"
	 xmlns="http://www.w3.org/2000/svg" xmlns:xlink="http://www.w3.org/1999/xlink" x="0px" y="0px" viewBox="-15 121.4 600 600"
	 style="enable-background:new -15 121.4 600 600;" xml:space="preserve">
<style type="text/css">
	.st0{fill:#D3ECF9;}
	.st1{fill:#85C9ED;}
	.st2{fill:#077FBA;}
</style>
<title>Fill 11 + Fill 12 + Fill 13</title>
<desc>Created with Sketch.</desc>
<g id="Page-1" sketch:type="MSPage">
	<g id="Fill-11-_x2B_-Fill-12-_x2B_-Fill-13" transform="translate(-5.000000, -3.714286)" sketch:type="MSLayerGroup">
		<g sketch:type="MSShapeGroup">
			<path id="Fill-11" class="st0" d="M290,585.2c-88.4,0-160.1-71.7-160.1-160.1S201.6,265,290,265s160.1,71.7,160.1,160.1
				S378.4,585.2,290,585.2 M290,125.1c-165.7,0-300,134.3-300,300s134.3,300,300,300s300-134.3,300-300S455.7,125.1,290,125.1"/>
			<path id="Fill-12" class="st1" d="M290,265c-88.4,0-160.1,71.7-160.1,160.1S201.6,585.2,290,585.2s160.1-71.7,160.1-160.1
				S378.4,265,290,265"/>
			<path id="Fill-13" class="st2" d="M348.2,425.1c0,32.1-26,58.2-58.2,58.2s-58.2-26-58.2-58.2c0-32.1,26-58.2,58.2-58.2
				S348.2,393,348.2,425.1"/>
		</g>
	</g>
</g>
</svg>
