<?xml version="1.0" encoding="UTF-8" standalone="no"?>
<svg width="232px" height="46px" viewBox="0 0 232 46" version="1.1" xmlns="http://www.w3.org/2000/svg" xmlns:xlink="http://www.w3.org/1999/xlink" xmlns:sketch="http://www.bohemiancoding.com/sketch/ns">
    <!-- Generator: Sketch 3.3.2 (12043) - http://www.bohemiancoding.com/sketch -->
    <title>Group</title>
    <desc>Created with Sketch.</desc>
    <defs></defs>
    <g id="Welcome" stroke="none" stroke-width="1" fill="none" fill-rule="evenodd" sketch:type="MSPage">
        <g id="Artboard-8" sketch:type="MSArtboardGroup">
            <g id="Group" sketch:type="MSLayerGroup">
                <path d="M61.7148024,30.8251706 L54.3299069,30.8251706 L54.3299069,13.9567021 L60.8939372,13.9567021 C62.035822,13.9567021 63.0210531,14.0940753 63.8501126,14.3673758 C64.6786901,14.6411582 65.3019308,15.0113429 65.7203166,15.4774479 C66.4761104,16.3460323 66.8549713,17.3278893 66.8549713,18.4220551 C66.8549713,19.7408381 66.4283912,20.7226951 65.5752312,21.3661803 C65.2860244,21.5907975 65.0845436,21.7320269 64.972235,21.7874582 C64.8594444,21.8452995 64.6584456,21.9373637 64.3687568,22.0655787 C65.4142394,22.29116 66.247155,22.7620851 66.8665395,23.4773899 C67.4859241,24.1931767 67.7958574,25.0815236 67.7958574,26.1438765 C67.7958574,27.3185381 67.3933779,28.3558265 66.589383,29.2571877 C65.6557271,30.3026703 64.0308669,30.8251706 61.7148024,30.8251706 L61.7148024,30.8251706 Z M58.0948974,20.7868026 L59.8802673,20.7868026 C60.9262319,20.7868026 61.7022702,20.674012 62.2093461,20.4489127 C62.71594,20.2238134 62.9694779,19.737464 62.9694779,18.9889004 C62.9694779,18.2403368 62.7361845,17.7462752 62.2695975,17.5052695 C61.8025285,17.2632998 61.01444,17.142797 59.9048499,17.142797 L58.0948974,17.142797 L58.0948974,20.7868026 L58.0948974,20.7868026 Z M58.0948974,27.6405217 L60.67655,27.6405217 C61.7548094,27.6405217 62.5626604,27.5079686 63.1020311,27.2423804 C63.6409197,26.9767921 63.9103641,26.4542918 63.9103641,25.6729515 C63.9103641,24.8935392 63.6245313,24.378269 63.0538299,24.1290692 C62.4821645,23.8793873 61.569717,23.7555104 60.3145595,23.7555104 L58.0948974,23.7555104 L58.0948974,27.6405217 L58.0948974,27.6405217 Z" id="Fill-1" fill="#383A42" sketch:type="MSShapeGroup"></path>
                <path d="M81.8402214,28.9433983 C80.376353,30.3272529 78.6589467,31.0184571 76.6884844,31.0184571 C74.71754,31.0184571 73.0883418,30.4111228 71.8013715,29.1969363 C70.5144013,27.9822677 69.8709161,26.3535515 69.8709161,24.3098234 C69.8709161,22.2670594 70.5264515,20.6417172 71.8375224,19.4352429 C73.1485932,18.2292505 74.6972956,17.6257723 76.4831475,17.6257723 C78.2689995,17.6257723 79.7854072,18.164179 81.0323705,19.2419563 C82.2788518,20.3202157 82.9025744,21.7999905 82.9025744,23.6827267 L82.9025744,25.6127001 L73.4426201,25.6127001 C73.5549287,26.3217387 73.9255954,26.9006343 74.5526922,27.3503509 C75.1802709,27.8015135 75.8878636,28.0266128 76.6764341,28.0266128 C77.9470159,28.0266128 78.9929805,27.6000328 79.8133638,26.7468727 L81.8402214,28.9433983 L81.8402214,28.9433983 Z M78.3654018,21.2451954 C77.8665201,20.8272916 77.2596678,20.6176167 76.543399,20.6176167 C75.8276121,20.6176167 75.1715947,20.8350038 74.5767927,21.268814 C73.9815087,21.7040702 73.6359066,22.29116 73.5395044,23.0315294 L79.2344682,23.0315294 C79.1534903,22.2583832 78.8642835,21.6635812 78.3654018,21.2451954 L78.3654018,21.2451954 Z" id="Fill-2" fill="#383A42" sketch:type="MSShapeGroup"></path>
                <path d="M96.5372289,30.8251706 L93.1342289,30.8251706 L93.1342289,29.2571877 C92.201537,30.4318493 91.0471198,31.0184571 89.6714595,31.0184571 C88.2957992,31.0184571 87.141864,30.6203157 86.2086901,29.823551 C85.2750342,29.0282323 84.8089292,27.9663614 84.8089292,26.6389022 C84.8089292,25.311443 85.2919046,24.3180176 86.2568912,23.6581441 C87.2218779,22.9992346 88.5411429,22.6690569 90.2146863,22.6690569 L92.9173238,22.6690569 L92.9173238,22.5962732 C92.9173238,21.2133827 92.1846666,20.5212144 90.7212802,20.5212144 C90.0937014,20.5212144 89.4299718,20.6455733 88.7300914,20.8952552 C88.0302109,21.144455 87.439265,21.4543883 86.9567717,21.824573 L85.3396237,19.482962 C87.0444978,18.2451569 88.9913415,17.6257723 91.1796729,17.6257723 C92.756332,17.6257723 94.0433022,18.0200576 95.0405837,18.8081461 C96.0383471,19.5962347 96.5372289,20.843198 96.5372289,22.548554 L96.5372289,30.8251706 L96.5372289,30.8251706 Z M92.8932232,25.8782883 L92.8932232,25.2511916 L90.6248779,25.2511916 C89.1769159,25.2511916 88.4529349,25.7023542 88.4529349,26.6022693 C88.4529349,27.0688563 88.6254949,27.4269907 88.971579,27.6761906 C89.3171812,27.9258724 89.8122068,28.0502313 90.4556919,28.0502313 C91.098695,28.0502313 91.6660224,27.8530887 92.1571919,27.4588034 C92.6473974,27.0654822 92.8932232,26.5381618 92.8932232,25.8782883 L92.8932232,25.8782883 Z" id="Fill-3" fill="#383A42" sketch:type="MSShapeGroup"></path>
                <path d="M106.069003,27.8092257 C107.275477,27.8092257 108.361449,27.2057475 109.326917,25.9997552 L111.47476,28.4127039 C109.801217,30.1503547 107.991264,31.0184571 106.044902,31.0184571 C104.098059,31.0184571 102.452954,30.4038927 101.109588,29.1723537 C99.7662228,27.9417788 99.094781,26.332825 99.094781,24.3464563 C99.094781,22.3591236 99.7739349,20.7424576 101.134171,19.4954943 C102.493443,18.249013 104.106253,17.6257723 105.972601,17.6257723 C106.905293,17.6257723 107.850517,17.8185769 108.808273,18.204668 C109.765066,18.590759 110.605694,19.1619424 111.329675,19.9182182 L109.44742,22.3788861 C109.029034,21.8809684 108.518584,21.4948773 107.915106,21.2210948 C107.311628,20.9477944 106.712006,20.8104212 106.117204,20.8104212 C105.167642,20.8104212 104.351597,21.1213185 103.668104,21.739739 C102.98413,22.3591236 102.642384,23.2204778 102.642384,24.3218737 C102.642384,25.4242336 102.98413,26.2812498 103.668104,26.8919581 C104.351597,27.5041125 105.152217,27.8092257 106.069003,27.8092257" id="Fill-4" fill="#383A42" sketch:type="MSShapeGroup"></path>
                <path d="M126.653779,24.334406 C126.653779,26.2161782 126.002099,27.8015135 124.698741,29.0884837 C123.395864,30.375454 121.758472,31.0184571 119.788009,31.0184571 C117.817065,31.0184571 116.180637,30.375454 114.876796,29.0884837 C113.573919,27.8015135 112.922722,26.2161782 112.922722,24.334406 C112.922722,22.4511878 113.573919,20.8634424 114.876796,19.567796 C116.180637,18.2731136 117.817065,17.6257723 119.788009,17.6257723 C121.758472,17.6257723 123.395864,18.2731136 124.698741,19.567796 C126.002099,20.8634424 126.653779,22.4511878 126.653779,24.334406 L126.653779,24.334406 Z M116.566246,24.334406 C116.566246,25.396277 116.867985,26.2605233 117.471463,26.927627 C118.074459,27.5961767 118.847123,27.9297285 119.788009,27.9297285 C120.729377,27.9297285 121.50156,27.5961767 122.105038,26.927627 C122.708516,26.2605233 123.009773,25.396277 123.009773,24.334406 C123.009773,23.2725351 122.708516,22.4034686 122.105038,21.7276888 C121.50156,21.0523909 120.729377,20.7145009 119.788009,20.7145009 C118.847123,20.7145009 118.074459,21.0523909 117.471463,21.7276888 C116.867985,22.4034686 116.566246,23.2725351 116.566246,24.334406 L116.566246,24.334406 Z" id="Fill-5" fill="#383A42" sketch:type="MSShapeGroup"></path>
                <path d="M132.952221,23.5858424 L132.952221,30.8251706 L129.332316,30.8251706 L129.332316,17.8421954 L132.952221,17.8421954 L132.952221,19.2901575 C134.045904,18.1800854 135.276961,17.6257723 136.644427,17.6257723 C138.011894,17.6257723 139.158117,18.1077837 140.082614,19.0737344 C141.007594,20.0387211 141.470325,21.3252093 141.470325,22.9341631 L141.470325,30.8251706 L137.850902,30.8251706 L137.850902,23.4899222 C137.850902,21.4948773 137.118727,20.4971138 135.654858,20.4971138 C134.930877,20.4971138 134.29896,20.758846 133.760072,21.2813463 C133.221183,21.8048106 132.952221,22.5726546 132.952221,23.5858424" id="Fill-6" fill="#383A42" sketch:type="MSShapeGroup"></path>
                <path d="M22.9032503,35.3912639 C16.2808966,35.3912639 10.9122545,30.0231037 10.9122545,23.4007501 C10.9122545,16.7783964 16.2808966,11.4097543 22.9032503,11.4097543 C29.5256039,11.4097543 34.8942461,16.7783964 34.8942461,23.4007501 C34.8942461,30.0231037 29.5256039,35.3912639 22.9032503,35.3912639 M22.9032503,0.93661211 C10.4967607,0.93661211 0.43911232,10.9942605 0.43911232,23.4007501 C0.43911232,35.8072397 10.4967607,45.864888 22.9032503,45.864888 C35.3097399,45.864888 45.3673882,35.8072397 45.3673882,23.4007501 C45.3673882,10.9942605 35.3097399,0.93661211 22.9032503,0.93661211" id="Fill-11" fill="#D3ECF9" sketch:type="MSShapeGroup"></path>
                <path d="M22.9032503,11.4097543 C16.2808966,11.4097543 10.9122545,16.7783964 10.9122545,23.4007501 C10.9122545,30.0231037 16.2808966,35.3912639 22.9032503,35.3912639 C29.5256039,35.3912639 34.8942461,30.0231037 34.8942461,23.4007501 C34.8942461,16.7783964 29.5256039,11.4097543 22.9032503,11.4097543" id="Fill-12" fill="#85C9ED" sketch:type="MSShapeGroup"></path>
                <path d="M27.2577406,23.4007501 C27.2577406,25.8055046 25.3084868,27.7552404 22.9032503,27.7552404 C20.4980138,27.7552404 18.5482779,25.8055046 18.5482779,23.4007501 C18.5482779,20.9955135 20.4980138,19.0457777 22.9032503,19.0457777 C25.3084868,19.0457777 27.2577406,20.9955135 27.2577406,23.4007501" id="Fill-13" fill="#077FBA" sketch:type="MSShapeGroup"></path>
                <path d="M153.425,28.325 C154.441672,28.325 155.316663,28.1541684 156.05,27.8125 C156.783337,27.4708316 157.549996,26.9250037 158.35,26.175 L160.25,28.125 C158.399991,30.1750102 156.15418,31.2 153.5125,31.2 C150.87082,31.2 148.679175,30.3500085 146.9375,28.65 C145.195825,26.9499915 144.325,24.800013 144.325,22.2 C144.325,19.599987 145.212491,17.433342 146.9875,15.7 C148.762509,13.966658 151.004153,13.1 153.7125,13.1 C156.420847,13.1 158.683324,14.09999 160.5,16.1 L158.625,18.15 C157.791662,17.349996 157.00417,16.7916682 156.2625,16.475 C155.52083,16.1583317 154.650005,16 153.65,16 C151.883324,16 150.400006,16.5708276 149.2,17.7125 C147.999994,18.8541724 147.4,20.3124911 147.4,22.0875 C147.4,23.8625089 147.995827,25.3458274 149.1875,26.5375 C150.379173,27.7291726 151.791658,28.325 153.425,28.325 L153.425,28.325 Z M168.675,28.7 C169.891673,28.7 170.895829,28.2958374 171.6875,27.4875 C172.479171,26.6791626 172.875,25.6333397 172.875,24.35 C172.875,23.0666602 172.479171,22.0208374 171.6875,21.2125 C170.895829,20.4041626 169.891673,20 168.675,20 C167.458327,20 166.454171,20.4041626 165.6625,21.2125 C164.870829,22.0208374 164.475,23.0666602 164.475,24.35 C164.475,25.6333397 164.870829,26.6791626 165.6625,27.4875 C166.454171,28.2958374 167.458327,28.7 168.675,28.7 L168.675,28.7 Z M168.675,31.2 C166.67499,31.2 165.00834,30.5375066 163.675,29.2125 C162.34166,27.8874934 161.675,26.2666763 161.675,24.35 C161.675,22.4333237 162.34166,20.8125066 163.675,19.4875 C165.00834,18.1624934 166.67499,17.5 168.675,17.5 C170.67501,17.5 172.34166,18.1624934 173.675,19.4875 C175.00834,20.8125066 175.675,22.4333237 175.675,24.35 C175.675,26.2666763 175.00834,27.8874934 173.675,29.2125 C172.34166,30.5375066 170.67501,31.2 168.675,31.2 L168.675,31.2 Z M181.15,23.8 L181.15,31 L178.35,31 L178.35,17.7 L181.15,17.7 L181.15,20.125 C181.600002,19.3083292 182.220829,18.666669 183.0125,18.2 C183.804171,17.733331 184.658329,17.5 185.575,17.5 C187.075008,17.5 188.287495,17.9583287 189.2125,18.875 C190.137505,19.7916713 190.6,21.116658 190.6,22.85 L190.6,31 L187.8,31 L187.8,23.7 C187.8,21.2499878 186.783344,20.025 184.75,20.025 C183.783329,20.025 182.94167,20.3458301 182.225,20.9875 C181.50833,21.6291699 181.15,22.5666605 181.15,23.8 L181.15,23.8 Z M197.275,19.95 L197.275,26.7 C197.275,27.3333365 197.441665,27.8374981 197.775,28.2125 C198.108335,28.5875019 198.574997,28.775 199.175,28.775 C199.775003,28.775 200.349997,28.4833362 200.9,27.9 L202.05,29.875 C201.066662,30.7583377 199.979173,31.2 198.7875,31.2 C197.595827,31.2 196.579171,30.7875041 195.7375,29.9625 C194.895829,29.1374959 194.475,28.025007 194.475,26.625 L194.475,19.95 L192.8,19.95 L192.8,17.7 L194.475,17.7 L194.475,13.525 L197.275,13.525 L197.275,17.7 L200.775,17.7 L200.775,19.95 L197.275,19.95 Z M210.75,20.325 C209.36666,20.325 208.325004,20.7749955 207.625,21.675 C206.924997,22.5750045 206.575,23.7833258 206.575,25.3 L206.575,31 L203.775,31 L203.775,17.7 L206.575,17.7 L206.575,20.375 C207.025002,19.5416625 207.637496,18.858336 208.4125,18.325 C209.187504,17.791664 210.008329,17.5166667 210.875,17.5 L210.9,20.325 L210.75,20.325 L210.75,20.325 Z M219.075,28.7 C220.291673,28.7 221.295829,28.2958374 222.0875,27.4875 C222.879171,26.6791626 223.275,25.6333397 223.275,24.35 C223.275,23.0666602 222.879171,22.0208374 222.0875,21.2125 C221.295829,20.4041626 220.291673,20 219.075,20 C217.858327,20 216.854171,20.4041626 216.0625,21.2125 C215.270829,22.0208374 214.875,23.0666602 214.875,24.35 C214.875,25.6333397 215.270829,26.6791626 216.0625,27.4875 C216.854171,28.2958374 217.858327,28.7 219.075,28.7 L219.075,28.7 Z M219.075,31.2 C217.07499,31.2 215.40834,30.5375066 214.075,29.2125 C212.74166,27.8874934 212.075,26.2666763 212.075,24.35 C212.075,22.4333237 212.74166,20.8125066 214.075,19.4875 C215.40834,18.1624934 217.07499,17.5 219.075,17.5 C221.07501,17.5 222.74166,18.1624934 224.075,19.4875 C225.40834,20.8125066 226.075,22.4333237 226.075,24.35 C226.075,26.2666763 225.40834,27.8874934 224.075,29.2125 C222.74166,30.5375066 221.07501,31.2 219.075,31.2 L219.075,31.2 Z M231.55,31 L228.75,31 L228.75,12.45 L231.55,12.45 L231.55,31 Z" id="Control" fill="#60656C" sketch:type="MSShapeGroup"></path>
            </g>
        </g>
    </g>
</svg>