<?xml version="1.0" encoding="UTF-8" standalone="no"?>
<svg width="463px" height="125px" viewBox="0 0 463 125" version="1.1" xmlns="http://www.w3.org/2000/svg" xmlns:xlink="http://www.w3.org/1999/xlink" xmlns:sketch="http://www.bohemiancoding.com/sketch/ns">
    <!-- Generator: Sketch 3.3 (11970) - http://www.bohemiancoding.com/sketch -->
    <title>Upnext_logo_black@1x</title>
    <desc>Created with Sketch.</desc>
    <defs></defs>
    <g id="Page-1" stroke="none" stroke-width="1" fill="none" fill-rule="evenodd" sketch:type="MSPage">
        <g id="Upnext_logo_black" sketch:type="MSArtboardGroup">
            <path d="M342.390799,58.2764444 L351.089615,49.6008889 L343.627885,42.1582222 L334.929068,50.8346667 L342.390799,58.2764444" id="Fill-1" fill="#191919" sketch:type="MSShapeGroup"></path>
            <path d="M338.234797,69.1831111 L334.928177,72.48 L343.627885,81.1564444 L351.089615,73.7137778 L342.390799,65.0382222 L338.234797,69.1831111" id="Fill-2" fill="#191919" sketch:type="MSShapeGroup"></path>
            <path d="M319.626816,42.1582222 L312.164194,49.6 L324.25341,61.6568889 L312.164194,73.7137778 L319.626816,81.1564444 L339.176871,61.6568889 L319.626816,42.1582222" id="Fill-3" fill="#DF3F32" sketch:type="MSShapeGroup"></path>
            <path d="M78.2489164,44.6595556 C78.2613942,45.2435556 78.2863499,45.8266667 78.2845673,46.4115556 C78.273872,52 78.3291309,57.592 78.221287,63.1786667 C78.1535503,66.7546667 77.297929,70.1617778 75.2123521,73.1635556 C73.493088,75.6373333 71.1499334,77.2995556 68.3041013,78.1911111 C63.6855288,79.6408889 59.0152626,79.6577778 54.4073854,78.1875556 C50.3128809,76.8835556 47.4723964,74.1466667 45.8743454,70.1493333 C44.7638203,67.3671111 44.4278107,64.4586667 44.4233543,61.496 C44.4144416,56.048 44.4215717,50.5964444 44.4233543,45.1484444 C44.4233543,44.9848889 44.4483099,44.8231111 44.4607877,44.6595556 L56.2861871,44.6595556 C56.2835133,50.4791111 56.2817308,56.2977778 56.2817308,62.1164444 C56.2817308,62.4675556 56.292426,62.8213333 56.3298595,63.1688889 C56.6311095,66.0746667 57.9751479,68.1751111 61.0749926,68.328 C62.8637759,68.4168889 64.3949815,67.8595556 65.4065754,66.2737778 C66.2158506,65.0044444 66.4217345,63.5795556 66.423517,62.1164444 C66.4315385,56.2977778 66.423517,50.4791111 66.423517,44.6595556 L78.2489164,44.6595556" id="Fill-4" fill="#191919" sketch:type="MSShapeGroup"></path>
            <path d="M129.083517,44.6595556 C130.494401,44.84 131.92311,44.9448889 133.316169,45.2168889 C136.571095,45.8533333 139.46149,47.1875556 141.574697,49.8595556 C143.409826,52.1822222 144.090758,54.8933333 144.13443,57.7831111 C144.186124,61.1511111 143.453499,64.2844444 141.14956,66.8862222 C139.22976,69.0568889 136.751132,70.3217778 133.965906,70.8577778 C131.885677,71.2595556 129.741276,71.3422222 127.621831,71.5155556 C126.740362,71.5884444 125.848199,71.528 124.882951,71.528 L124.882951,78.4568889 L113.1752,78.4568889 L113.1752,44.6595556 L129.083517,44.6595556 L129.083517,44.6595556 Z M124.880277,61.8915556 C126.071908,61.8915556 127.194911,61.9146667 128.314349,61.8817778 C128.801875,61.8666667 129.292966,61.7742222 129.766232,61.6524444 C131.292089,61.2497778 132.160189,60.0844444 132.28051,58.3288889 C132.393702,56.6586667 131.60047,55.3066667 130.159283,54.7315556 C128.440018,54.0435556 126.656583,54.4675556 124.880277,54.3271111 L124.880277,61.8915556 L124.880277,61.8915556 Z" id="Fill-5" fill="#191919" sketch:type="MSShapeGroup"></path>
            <path d="M384.253854,44.6595556 L384.253854,54.6337778 L393.64608,54.6337778 L393.64608,78.4551111 L405.319963,78.4551111 L405.319963,54.6293333 L414.619497,54.6293333 L414.619497,44.6595556 L384.253854,44.6595556" id="Fill-6" fill="#191919" sketch:type="MSShapeGroup"></path>
            <path d="M177.542877,78.4488889 L177.542877,44.6595556 L187.526908,44.6595556 L202.11436,61.6933333 L202.11436,44.6595556 L213.095725,44.6595556 L213.095725,78.4986667 L203.090303,78.4986667 L188.433332,61.8008889 L188.433332,78.4488889 L177.542877,78.4488889" id="Fill-7" fill="#191919" sketch:type="MSShapeGroup"></path>
            <path d="M276.721864,53.0728889 L276.721864,44.4506667 L248.83574,44.4506667 L248.83574,79.3662222 L276.721864,79.3662222 L276.721864,70.5831111 L258.867899,70.5831111 L258.867899,65.7075556 L276.721864,65.7075556 L276.721864,57.5386667 L258.867899,57.5386667 L258.867899,53.0728889 L276.721864,53.0728889" id="Fill-8" fill="#191919" sketch:type="MSShapeGroup"></path>
        </g>
    </g>
</svg>